<svg xmlns="http://www.w3.org/2000/svg" viewBox="0 0 140 95">
    <defs>
        <style>
            .a {
                fill: #242a37;
            }

            .b {
                fill: #fff;
            }

            .c {
                fill: #ffd428;
            }
        </style>
    </defs>
    <g transform="translate(-20 -19)">
        <g transform="translate(79.823 269.328)">
            <path class="a"
                d="M-44.649-161.691l.027.076A5.593,5.593,0,0,1-46.534-157a8.122,8.122,0,0,1-5.426,1.67,7.77,7.77,0,0,1-5.7-2.132,7.387,7.387,0,0,1-2.167-5.509v-3.656a7.514,7.514,0,0,1,2.114-5.509,7.444,7.444,0,0,1,5.547-2.144,8.635,8.635,0,0,1,5.6,1.644A5.5,5.5,0,0,1-44.6-168l-.027.076h-3.824a3.485,3.485,0,0,0-.909-2.637,3.944,3.944,0,0,0-2.807-.867,3.235,3.235,0,0,0-2.754,1.335,5.645,5.645,0,0,0-.989,3.447v3.681a5.476,5.476,0,0,0,1.043,3.466,3.47,3.47,0,0,0,2.9,1.341,3.582,3.582,0,0,0,2.632-.866,3.621,3.621,0,0,0,.868-2.663Z" />
            <path class="a" d="M-37.971-155.594H-41.9v-19.734h3.931Z" />
            <path class="a"
                d="M-35.345-162.564a7.072,7.072,0,0,1,1.817-5.016,6.538,6.538,0,0,1,5.036-1.954,6.609,6.609,0,0,1,5.062,1.948,7.037,7.037,0,0,1,1.831,5.022v.266a7.045,7.045,0,0,1-1.824,5.028,6.582,6.582,0,0,1-5.042,1.942,6.6,6.6,0,0,1-5.056-1.942,7.041,7.041,0,0,1-1.824-5.028Zm3.918.266a5.655,5.655,0,0,0,.7,3,2.455,2.455,0,0,0,2.262,1.132,2.43,2.43,0,0,0,2.228-1.138,5.628,5.628,0,0,0,.707-3v-.266a5.569,5.569,0,0,0-.714-2.973,2.453,2.453,0,0,0-2.248-1.151,2.422,2.422,0,0,0-2.229,1.157,5.623,5.623,0,0,0-.706,2.967Z" />
            <path class="a"
                d="M-10.248-157.618a4.783,4.783,0,0,1-1.71,1.695,4.756,4.756,0,0,1-2.41.6,4.559,4.559,0,0,1-3.6-1.468,6.728,6.728,0,0,1-1.3-4.554v-7.931h3.918v7.957a4.2,4.2,0,0,0,.518,2.46,1.913,1.913,0,0,0,1.609.664,4.156,4.156,0,0,0,1.616-.284,2.7,2.7,0,0,0,1.1-.842v-9.955h3.931v13.687H-9.831Z" />
            <path class="a"
                d="M-4.216-162.324a8.5,8.5,0,0,1,1.487-5.224,4.935,4.935,0,0,1,4.194-1.986,4.294,4.294,0,0,1,1.966.442,4.662,4.662,0,0,1,1.535,1.265v-7.5H8.911v19.734H5.559l-.337-1.682a4.767,4.767,0,0,1-1.629,1.448,4.534,4.534,0,0,1-2.154.5,5.049,5.049,0,0,1-4.168-1.847,7.548,7.548,0,0,1-1.487-4.883Zm3.918.266a5.3,5.3,0,0,0,.646,2.827,2.289,2.289,0,0,0,2.1,1.031,3.22,3.22,0,0,0,1.481-.322,2.664,2.664,0,0,0,1.037-.943V-165.3a2.915,2.915,0,0,0-1.03-1.006,2.868,2.868,0,0,0-1.461-.361,2.24,2.24,0,0,0-2.107,1.2A6.45,6.45,0,0,0-.3-162.324Z" />
            <path class="a"
                d="M19.117-155.594v-18.419h6.84a8.383,8.383,0,0,1,5.924,2.157,7.205,7.205,0,0,1,2.329,5.535v3.049a7.178,7.178,0,0,1-2.329,5.534,8.409,8.409,0,0,1-5.924,2.144Zm3.931-15.572v12.739h2.909a3.943,3.943,0,0,0,3.123-1.36,5.114,5.114,0,0,0,1.185-3.485v-3.074a5.072,5.072,0,0,0-1.185-3.467,3.95,3.95,0,0,0-3.123-1.353Z" />
            <path class="a"
                d="M44.726-166.106l-1.441-.038a2.757,2.757,0,0,0-1.441.341,2.206,2.206,0,0,0-.861.962v9.247H37.065v-13.687h3.648l.175,2.024a4.339,4.339,0,0,1,1.327-1.676,3.077,3.077,0,0,1,1.878-.6,3.176,3.176,0,0,1,.545.044c.166.03.334.065.505.107Z" />
            <path class="a" d="M50.906-172.558H46.974v-2.77h3.932Zm0,16.964H46.974v-13.687h3.932Z" />
            <path class="a"
                d="M59.4-160.692l.255,1.265h.081l.269-1.265,2.4-8.589h4.107l-4.955,13.687H57.8l-4.954-13.687h4.106Z" />
            <path class="a"
                d="M74.36-155.328a6.775,6.775,0,0,1-5.089-1.879,6.639,6.639,0,0,1-1.831-4.838v-.506a7.207,7.207,0,0,1,1.777-5.035,6.229,6.229,0,0,1,4.887-1.948,5.847,5.847,0,0,1,4.5,1.688,6.419,6.419,0,0,1,1.569,4.548v1.91H71.492l-.04.076a3.568,3.568,0,0,0,.909,2.277,3.147,3.147,0,0,0,2.417.873,8.564,8.564,0,0,0,2.241-.253,9.431,9.431,0,0,0,1.906-.771l1.063,2.277a7.472,7.472,0,0,1-2.369,1.125A11.128,11.128,0,0,1,74.36-155.328Zm-.256-11.36a2.243,2.243,0,0,0-1.824.765,3.7,3.7,0,0,0-.774,2.031l.027.063h4.793v-.278A3.057,3.057,0,0,0,75.8-166,2,2,0,0,0,74.1-166.688Z" />
        </g>
        <g transform="translate(-57.75 164)">
            <rect class="a" width="67.208" height="50.386" rx="3.093" transform="translate(109.016 -135.386)" />
            <path class="b"
                d="M119.67-101.251a1.816,1.816,0,0,1-1.736-1.3l-8.6-29.622a1.776,1.776,0,0,1,.154-1.368,1.793,1.793,0,0,1,1.081-.859l29.787-8.549a1.824,1.824,0,0,1,.5-.072,1.816,1.816,0,0,1,1.737,1.3l8.6,29.623a1.8,1.8,0,0,1-1.236,2.226l-29.787,8.549A1.835,1.835,0,0,1,119.67-101.251Z" />
            <path class="a"
                d="M140.864-142.506h0a1.3,1.3,0,0,1,1.239.929l8.6,29.623a1.284,1.284,0,0,1-.882,1.59l-29.787,8.548a1.3,1.3,0,0,1-.359.051,1.3,1.3,0,0,1-1.24-.928l-8.6-29.623a1.285,1.285,0,0,1,.883-1.59l29.786-8.549a1.3,1.3,0,0,1,.36-.051m0-1.028a2.327,2.327,0,0,0-.646.091l-29.787,8.549a2.31,2.31,0,0,0-1.589,2.863l8.6,29.623a2.324,2.324,0,0,0,2.233,1.672,2.339,2.339,0,0,0,.646-.092l29.786-8.548a2.311,2.311,0,0,0,1.59-2.863l-8.6-29.623a2.325,2.325,0,0,0-2.233-1.672Z" />
            <path class="c"
                d="M144.052-116.331l-22.34,6.412a2.328,2.328,0,0,1-2.879-1.581l-5.158-17.773a2.311,2.311,0,0,1,1.59-2.863l22.34-6.412a2.327,2.327,0,0,1,2.878,1.581l5.158,17.773A2.31,2.31,0,0,1,144.052-116.331Z" />
            <path class="a"
                d="M140-119.179l-16.383,4.7a1.551,1.551,0,0,1-1.919-1.054h0a1.539,1.539,0,0,1,1.059-1.908l16.383-4.7a1.551,1.551,0,0,1,1.919,1.054h0A1.539,1.539,0,0,1,140-119.179Z" />
            <path class="a"
                d="M138.279-125.1,121.9-120.4a1.551,1.551,0,0,1-1.919-1.054h0a1.54,1.54,0,0,1,1.059-1.909l16.383-4.7a1.552,1.552,0,0,1,1.919,1.054h0A1.541,1.541,0,0,1,138.279-125.1Z" />
            <path class="a"
                d="M136.56-131.028l-16.382,4.7a1.553,1.553,0,0,1-1.92-1.054h0a1.54,1.54,0,0,1,1.06-1.908l16.383-4.7a1.552,1.552,0,0,1,1.919,1.054h0A1.54,1.54,0,0,1,136.56-131.028Z" />
            <path class="b"
                d="M131.3-110.057a1.806,1.806,0,0,1-1.808-1.8v-30.831a1.805,1.805,0,0,1,1.808-1.8h31a1.806,1.806,0,0,1,1.809,1.8v30.831a1.806,1.806,0,0,1-1.809,1.8Z" />
            <path class="a"
                d="M162.3-143.972a1.289,1.289,0,0,1,1.291,1.284v30.832a1.289,1.289,0,0,1-1.291,1.284h-31a1.289,1.289,0,0,1-1.291-1.284v-30.832a1.289,1.289,0,0,1,1.291-1.284h31m0-1.028h-31a2.318,2.318,0,0,0-2.325,2.312v30.832a2.319,2.319,0,0,0,2.325,2.313h31a2.319,2.319,0,0,0,2.325-2.313v-30.832A2.318,2.318,0,0,0,162.3-145Z" />
            <rect class="c" width="27.902" height="23.124" rx="2.319" transform="translate(132.85 -141.018)" />
            <ellipse class="a" cx="2.325" cy="2.312" rx="2.325" ry="2.312" transform="translate(136.682 -136.007)" />
            <path class="a" d="M158.383-121.362H135.132L146.757-136.6Z" />
            <path class="b"
                d="M171.978-97.344a1.807,1.807,0,0,1-.695-.139l-28.609-11.879a1.8,1.8,0,0,1-.972-2.353l11.945-28.452a1.806,1.806,0,0,1,1.67-1.1,1.81,1.81,0,0,1,.695.138l28.609,11.881a1.8,1.8,0,0,1,.972,2.353L173.647-98.449A1.8,1.8,0,0,1,171.978-97.344Z" />
            <path class="a"
                d="M155.317-140.758h0a1.27,1.27,0,0,1,.5.1l28.609,11.879a1.284,1.284,0,0,1,.694,1.68L173.17-98.648a1.288,1.288,0,0,1-1.192.79,1.3,1.3,0,0,1-.5-.1l-28.608-11.88a1.281,1.281,0,0,1-.7-.7,1.27,1.27,0,0,1,0-.983l11.945-28.451a1.29,1.29,0,0,1,1.193-.79m0-1.028a2.326,2.326,0,0,0-2.147,1.422l-11.945,28.451a2.307,2.307,0,0,0,1.249,3.025l28.609,11.88a2.339,2.339,0,0,0,.9.179,2.328,2.328,0,0,0,2.147-1.422L186.07-126.7a2.308,2.308,0,0,0-1.25-3.025l-28.609-11.879a2.316,2.316,0,0,0-.894-.179Z" />
            <path class="c"
                d="M170.668-106.021l-21.457-8.91a2.309,2.309,0,0,1-1.25-3.025l7.167-17.071a2.33,2.33,0,0,1,3.042-1.242l21.456,8.909a2.308,2.308,0,0,1,1.25,3.025l-7.167,17.071A2.33,2.33,0,0,1,170.668-106.021Z" />
            <path class="a" d="M171.3-110.539l-19.311-8.019,5.272-12.557,19.311,8.019Z" />
            <path class="c" d="M160.2-117.455l3.625-8.634,3.909,6.693Z" />
            <path class="a"
                d="M172.192-85h-61c-1.714,0-2.6-1.381-1.973-3.085l5.272-21.594a4.907,4.907,0,0,1,4.231-3.085h61c1.713,0,2.6,1.382,1.973,3.085l-5.273,21.594A4.9,4.9,0,0,1,172.192-85Z" />
        </g>
    </g>
</svg>