<svg xmlns="http://www.w3.org/2000/svg" viewBox="0 0 90 70">
    <defs>
        <style>
            .a {
                fill: #242a37;
            }

            .b {
                fill: #fff;
            }

            .c {
                fill: #ffd428;
            }
        </style>
    </defs>
    <g>
        <g transform="translate(-100 150)">
            <rect class="a" width="67.208" height="50.386" rx="3.093" transform="translate(109.016 -135.386)" />
            <path class="b"
                d="M119.67-101.251a1.816,1.816,0,0,1-1.736-1.3l-8.6-29.622a1.776,1.776,0,0,1,.154-1.368,1.793,1.793,0,0,1,1.081-.859l29.787-8.549a1.824,1.824,0,0,1,.5-.072,1.816,1.816,0,0,1,1.737,1.3l8.6,29.623a1.8,1.8,0,0,1-1.236,2.226l-29.787,8.549A1.835,1.835,0,0,1,119.67-101.251Z" />
            <path class="a"
                d="M140.864-142.506h0a1.3,1.3,0,0,1,1.239.929l8.6,29.623a1.284,1.284,0,0,1-.882,1.59l-29.787,8.548a1.3,1.3,0,0,1-.359.051,1.3,1.3,0,0,1-1.24-.928l-8.6-29.623a1.285,1.285,0,0,1,.883-1.59l29.786-8.549a1.3,1.3,0,0,1,.36-.051m0-1.028a2.327,2.327,0,0,0-.646.091l-29.787,8.549a2.31,2.31,0,0,0-1.589,2.863l8.6,29.623a2.324,2.324,0,0,0,2.233,1.672,2.339,2.339,0,0,0,.646-.092l29.786-8.548a2.311,2.311,0,0,0,1.59-2.863l-8.6-29.623a2.325,2.325,0,0,0-2.233-1.672Z" />
            <path class="c"
                d="M144.052-116.331l-22.34,6.412a2.328,2.328,0,0,1-2.879-1.581l-5.158-17.773a2.311,2.311,0,0,1,1.59-2.863l22.34-6.412a2.327,2.327,0,0,1,2.878,1.581l5.158,17.773A2.31,2.31,0,0,1,144.052-116.331Z" />
            <path class="a"
                d="M140-119.179l-16.383,4.7a1.551,1.551,0,0,1-1.919-1.054h0a1.539,1.539,0,0,1,1.059-1.908l16.383-4.7a1.551,1.551,0,0,1,1.919,1.054h0A1.539,1.539,0,0,1,140-119.179Z" />
            <path class="a"
                d="M138.279-125.1,121.9-120.4a1.551,1.551,0,0,1-1.919-1.054h0a1.54,1.54,0,0,1,1.059-1.909l16.383-4.7a1.552,1.552,0,0,1,1.919,1.054h0A1.541,1.541,0,0,1,138.279-125.1Z" />
            <path class="a"
                d="M136.56-131.028l-16.382,4.7a1.553,1.553,0,0,1-1.92-1.054h0a1.54,1.54,0,0,1,1.06-1.908l16.383-4.7a1.552,1.552,0,0,1,1.919,1.054h0A1.54,1.54,0,0,1,136.56-131.028Z" />
            <path class="b"
                d="M131.3-110.057a1.806,1.806,0,0,1-1.808-1.8v-30.831a1.805,1.805,0,0,1,1.808-1.8h31a1.806,1.806,0,0,1,1.809,1.8v30.831a1.806,1.806,0,0,1-1.809,1.8Z" />
            <path class="a"
                d="M162.3-143.972a1.289,1.289,0,0,1,1.291,1.284v30.832a1.289,1.289,0,0,1-1.291,1.284h-31a1.289,1.289,0,0,1-1.291-1.284v-30.832a1.289,1.289,0,0,1,1.291-1.284h31m0-1.028h-31a2.318,2.318,0,0,0-2.325,2.312v30.832a2.319,2.319,0,0,0,2.325,2.313h31a2.319,2.319,0,0,0,2.325-2.313v-30.832A2.318,2.318,0,0,0,162.3-145Z" />
            <rect class="c" width="27.902" height="23.124" rx="2.319" transform="translate(132.85 -141.018)" />
            <ellipse class="a" cx="2.325" cy="2.312" rx="2.325" ry="2.312" transform="translate(136.682 -136.007)" />
            <path class="a" d="M158.383-121.362H135.132L146.757-136.6Z" />
            <path class="b"
                d="M171.978-97.344a1.807,1.807,0,0,1-.695-.139l-28.609-11.879a1.8,1.8,0,0,1-.972-2.353l11.945-28.452a1.806,1.806,0,0,1,1.67-1.1,1.81,1.81,0,0,1,.695.138l28.609,11.881a1.8,1.8,0,0,1,.972,2.353L173.647-98.449A1.8,1.8,0,0,1,171.978-97.344Z" />
            <path class="a"
                d="M155.317-140.758h0a1.27,1.27,0,0,1,.5.1l28.609,11.879a1.284,1.284,0,0,1,.694,1.68L173.17-98.648a1.288,1.288,0,0,1-1.192.79,1.3,1.3,0,0,1-.5-.1l-28.608-11.88a1.281,1.281,0,0,1-.7-.7,1.27,1.27,0,0,1,0-.983l11.945-28.451a1.29,1.29,0,0,1,1.193-.79m0-1.028a2.326,2.326,0,0,0-2.147,1.422l-11.945,28.451a2.307,2.307,0,0,0,1.249,3.025l28.609,11.88a2.339,2.339,0,0,0,.9.179,2.328,2.328,0,0,0,2.147-1.422L186.07-126.7a2.308,2.308,0,0,0-1.25-3.025l-28.609-11.879a2.316,2.316,0,0,0-.894-.179Z" />
            <path class="c"
                d="M170.668-106.021l-21.457-8.91a2.309,2.309,0,0,1-1.25-3.025l7.167-17.071a2.33,2.33,0,0,1,3.042-1.242l21.456,8.909a2.308,2.308,0,0,1,1.25,3.025l-7.167,17.071A2.33,2.33,0,0,1,170.668-106.021Z" />
            <path class="a" d="M171.3-110.539l-19.311-8.019,5.272-12.557,19.311,8.019Z" />
            <path class="c" d="M160.2-117.455l3.625-8.634,3.909,6.693Z" />
            <path class="a"
                d="M172.192-85h-61c-1.714,0-2.6-1.381-1.973-3.085l5.272-21.594a4.907,4.907,0,0,1,4.231-3.085h61c1.713,0,2.6,1.382,1.973,3.085l-5.273,21.594A4.9,4.9,0,0,1,172.192-85Z" />
        </g>
    </g>
</svg>